<?xml version="1.0" standalone="no"?>
<!DOCTYPE svg PUBLIC "-//W3C//DTD SVG 20010904//EN"
 "http://www.w3.org/TR/2001/REC-SVG-20010904/DTD/svg10.dtd">
<svg version="1.0" xmlns="http://www.w3.org/2000/svg"
 width="225.000000pt" height="225.000000pt" viewBox="0 0 225.000000 225.000000"
 preserveAspectRatio="xMidYMid meet">
<metadata>
Created by potrace 1.11, written by Peter Selinger 2001-2013
</metadata>
<g transform="translate(0.000000,225.000000) scale(0.100000,-0.100000)"
fill="#000000" stroke="none">
<path d="M990 2244 c-191 -24 -349 -92 -440 -190 -86 -93 -163 -300 -177 -472
-5 -70 -11 -90 -35 -123 l-28 -39 0 -267 0 -268 84 -85 85 -85 29 -120 28
-120 143 -195 c78 -107 161 -214 184 -237 l41 -43 232 0 232 0 39 48 c22 26
95 118 163 205 120 154 123 160 142 240 36 157 35 154 118 239 93 93 85 61
101 397 l10 224 -39 41 c-39 41 -40 42 -45 137 -4 69 -14 120 -35 185 -48 141
-95 217 -203 326 -103 105 -178 150 -304 183 -60 16 -258 27 -325 19z m-161
-276 c6 -18 31 -103 56 -188 25 -85 51 -170 56 -187 l11 -33 128 0 c114 0 129
2 134 18 3 9 30 103 61 207 31 105 58 196 60 203 4 10 26 3 83 -28 84 -45 115
-71 172 -142 l37 -47 -26 -83 c-24 -78 -26 -97 -27 -297 l-1 -215 -54 -18
c-165 -57 -351 -84 -503 -75 -138 9 -221 26 -408 84 -14 4 -17 31 -20 231 -4
230 -7 251 -52 353 -9 21 56 107 115 154 43 33 147 94 161 95 3 0 11 -15 17
-32z m-288 -403 c8 -62 9 -131 3 -220 -10 -156 -10 -186 0 -246 6 -43 10 -48
49 -62 65 -24 115 -35 202 -42 75 -6 83 -4 110 17 28 21 39 23 175 24 139 1
146 0 173 -22 27 -23 34 -24 110 -18 89 6 138 16 204 41 37 14 42 20 49 57 5
22 6 79 4 126 -9 161 -4 374 10 420 13 44 14 41 27 -132 12 -163 16 -186 52
-286 l39 -109 -63 -82 c-72 -94 -118 -144 -239 -258 -84 -80 -88 -85 -119
-175 l-32 -93 -215 -3 -215 -2 -29 92 c-31 101 -19 85 -210 268 -65 62 -183
201 -209 247 -4 6 2 33 14 60 49 112 57 150 70 332 6 101 16 177 20 169 4 -8
13 -54 20 -103z m1020 -479 c-17 -20 -93 -37 -193 -43 -108 -7 -118 8 -18 26
39 7 103 23 143 35 58 18 73 19 75 9 2 -8 -1 -20 -7 -27z m-841 5 c47 -11 102
-22 123 -25 21 -4 35 -11 32 -17 -13 -20 -200 -2 -255 24 -14 7 -26 21 -28 31
-3 16 0 18 19 12 13 -4 62 -15 109 -25z m37 -423 c26 -32 101 -323 88 -336 -3
-3 -22 3 -43 12 -32 15 -40 25 -51 64 -19 71 -94 258 -141 352 l-42 84 89 -82
c50 -45 95 -87 100 -94z m778 60 c-31 -62 -75 -169 -99 -238 -41 -118 -45
-126 -80 -144 -20 -10 -40 -16 -43 -12 -9 9 16 120 52 228 l34 102 93 87 c51
49 94 88 95 89 1 0 -22 -51 -52 -112z m-251 -305 c-21 -122 -33 -165 -50 -178
-29 -22 -104 -45 -145 -45 -43 0 -168 42 -179 61 -7 10 -40 173 -40 193 0 3
95 6 210 6 l211 0 -7 -37z"/>
</g>
</svg>
